<?xml version="1.0" encoding="UTF-8"?>
<svg width="26px" height="26px" viewBox="0 0 26 26" version="1.1" xmlns="http://www.w3.org/2000/svg" xmlns:xlink="http://www.w3.org/1999/xlink">
    <!-- Generator: Sketch 49.3 (51167) - http://www.bohemiancoding.com/sketch -->
    <title>Combined Shape</title>
    <desc>Created with Sketch.</desc>
    <defs></defs>
    <g id="Page-1" stroke="none" stroke-width="1" fill="none" fill-rule="evenodd">
        <path d="M13,26 C5.82029825,26 0,20.1797017 0,13 C0,5.82029825 5.82029825,0 13,0 C20.1797017,0 26,5.82029825 26,13 C26,20.1797017 20.1797017,26 13,26 Z M9.7550248,7.51724518 C9.66897291,7.49057851 9.61160498,7.49057851 9.55423706,7.49057851 C9.00924175,7.49057851 8.5789823,7.89057851 8.55029834,8.39724518 C8.55029834,12.9483563 8.55029834,15.2239118 8.55029834,15.2239118 C8.55029834,15.6505785 8.40687852,15.8372452 7.97661907,15.8372452 C7.46030772,15.8372452 6.42768504,15.8372452 5.88268973,15.8372452 C5.2803265,15.8372452 5.05085479,15.9705785 4.99348686,16.5305785 C4.90743497,17.2239118 5.73926991,17.5172452 6.42768504,17.7039118 L6.94399638,17.8372452 C7.14478412,17.8905785 7.34557187,17.9705785 7.51767565,18.0772452 C8.37819455,18.5839118 8.52161437,18.8505785 8.75108608,19.6239118 C9.49686913,21.9972452 11.131855,23.0905785 13.3405202,23.0905785 C13.4552561,23.0905785 13.5699919,23.0905785 13.7134118,23.0905785 C15.864709,22.9572452 17.9873223,21.2239118 17.9873223,18.9305785 L17.9873223,14.0772452 C17.9873223,13.5705785 17.5570629,13.1705785 17.0120676,13.1705785 C16.9546996,13.1705785 16.8686477,13.1705785 16.7825959,13.1972452 C16.3523364,13.3039118 16.0941807,13.6239118 16.0941807,14.0505785 L16.0941807,15.4639118 L15.922077,15.4639118 C15.7786571,15.3305785 15.6926052,15.2505785 15.5491854,15.1172452 L15.5491854,13.2505785 C15.5491854,12.8505785 15.2049779,12.4239118 14.7747184,12.3439118 C14.6886665,12.3172452 14.6312986,12.3172452 14.5452467,12.3172452 C14.0289354,12.3172452 13.5986759,12.6905785 13.5986759,13.1705785 L13.5986759,14.9839118 L13.4265721,14.9839118 C13.2831523,14.8505785 13.1971004,14.7972452 13.0536806,14.6639118 L13.0536806,12.4505785 C13.0536806,12.0239118 12.766841,11.6239118 12.3078976,11.5172452 C12.2505296,11.4905785 12.1644777,11.4905785 12.0784258,11.4905785 C11.5334305,11.4905785 11.1031711,11.8905785 11.1031711,12.3972452 L11.1031711,14.5839118 L10.9310673,14.6105785 C10.7876475,14.4505785 10.6729116,14.3439118 10.5294918,14.1839118 C10.5294918,13.5705785 10.5294918,12.2372452 10.5294918,10.9572452 L10.5294918,8.45057851 C10.5294918,8.05057851 10.1852843,7.59724518 9.7550248,7.51724518 Z M9.53732233,3.59057851 C7.74982233,3.59057851 6.28732233,5.11401601 6.28732233,6.97599518 C6.28732233,8.36401601 7.09982233,9.58276601 8.26982233,10.0905785 C8.07482233,9.81974518 7.97732233,9.48120351 7.97732233,9.14266185 L7.97732233,7.55151601 C7.97732233,6.63745351 8.69232233,5.92651601 9.53732233,5.92651601 C10.3823223,5.92651601 11.0973223,6.67130768 11.0973223,7.55151601 L11.0973223,9.14266185 C11.0973223,9.51505768 10.9673223,9.81974518 10.8048223,10.0905785 C11.9748223,9.58276601 12.7873223,8.36401601 12.7873223,6.97599518 C12.7873223,5.11401601 11.3573223,3.59057851 9.53732233,3.59057851 Z M15.6,3.9 C14.8820298,3.9 14.3,4.48202983 14.3,5.2 C14.3,5.91797017 14.8820298,6.5 15.6,6.5 C16.3179702,6.5 16.9,5.91797017 16.9,5.2 C16.9,4.48202983 16.3179702,3.9 15.6,3.9 Z M19.5,3.9 C18.7820298,3.9 18.2,4.48202983 18.2,5.2 C18.2,5.91797017 18.7820298,6.5 19.5,6.5 C20.2179702,6.5 20.8,5.91797017 20.8,5.2 C20.8,4.48202983 20.2179702,3.9 19.5,3.9 Z M15.6,7.8 C14.8820298,7.8 14.3,8.38202983 14.3,9.1 C14.3,9.81797017 14.8820298,10.4 15.6,10.4 C16.3179702,10.4 16.9,9.81797017 16.9,9.1 C16.9,8.38202983 16.3179702,7.8 15.6,7.8 Z M19.5,7.8 C18.7820298,7.8 18.2,8.38202983 18.2,9.1 C18.2,9.81797017 18.7820298,10.4 19.5,10.4 C20.2179702,10.4 20.8,9.81797017 20.8,9.1 C20.8,8.38202983 20.2179702,7.8 19.5,7.8 Z" id="Combined-Shape" fill="#45C15A"></path>
    </g>
</svg>