<?xml version="1.0" encoding="UTF-8"?>
<svg width="70px" height="19px" viewBox="0 0 70 19" version="1.1" xmlns="http://www.w3.org/2000/svg" xmlns:xlink="http://www.w3.org/1999/xlink">
    <!-- Generator: Sketch 52.3 (67297) - http://www.bohemiancoding.com/sketch -->
    <title>Combined Shape</title>
    <desc>Created with Sketch.</desc>
    <g id="Page-1" stroke="none" stroke-width="1" fill="none" fill-rule="evenodd">
        <g id="Pay@Hotel-SRP" transform="translate(-736.000000, -152.000000)" fill="#36C247">
            <g id="Group-7" transform="translate(346.000000, 19.000000)">
                <g id="Group-6" transform="translate(281.000000, 74.000000)">
                    <path d="M146.840549,64.04674 C146.303493,65.0803212 145.999999,66.2547182 145.999999,67.5 C145.999999,71.6421356 149.357863,75 153.499999,75 C157.642134,75 160.999999,71.6421356 160.999999,67.5 C160.999999,63.5230962 157.904685,60.2691417 153.991787,60.0158663 C154.808524,58.933997 156.66992,58.4367769 159.734066,59.9586859 C162.723843,61.4450292 165,64.6755241 165,68.0296616 C165,73.1963489 161.317826,78 155.903332,78 L113,78 C110,78 109,77 109,74 L109,63 C109,60 110,59 113,59 L142.590556,59.0116353 C144.142481,59.0116353 145.5034,60.1033742 146.06846,61.4950124 C146.38594,62.2775829 146.626957,63.1443068 146.840549,64.04674 Z M117.55,66.11 C117.281332,66.11 117.040834,66.1359997 116.8285,66.188 C116.616166,66.2400003 116.429834,66.3049996 116.2695,66.383 C116.109166,66.4610004 115.972667,66.5454995 115.86,66.6365 C115.747333,66.7275005 115.656334,66.8119996 115.587,66.89 L115.587,64.121 C115.587,64.0256662 115.552334,63.9433337 115.483,63.874 C115.413666,63.8046663 115.331334,63.77 115.236,63.77 L114.248,63.77 C114.152666,63.77 114.070334,63.8046663 114.001,63.874 C113.931666,63.9433337 113.897,64.0256662 113.897,64.121 L113.897,72.649 C113.897,72.7443338 113.931666,72.8266663 114.001,72.896 C114.070334,72.9653337 114.152666,73 114.248,73 L115.236,73 C115.331334,73 115.413666,72.9653337 115.483,72.896 C115.552334,72.8266663 115.587,72.7443338 115.587,72.649 L115.587,72.35 C115.656334,72.4280004 115.747333,72.5124995 115.86,72.6035 C115.972667,72.6945005 116.109166,72.7789996 116.2695,72.857 C116.429834,72.9350004 116.616166,72.9999997 116.8285,73.052 C117.040834,73.1040003 117.281332,73.13 117.55,73.13 C117.983335,73.13 118.375498,73.0455008 118.7265,72.8765 C119.077502,72.7074992 119.376499,72.4821681 119.6235,72.2005 C119.870501,71.9188319 120.065499,71.5938352 120.2085,71.2255 C120.351501,70.8571648 120.431667,70.4736687 120.449,70.075 C120.457667,69.9449994 120.462,69.7933342 120.462,69.62 C120.462,69.4466658 120.457667,69.2950007 120.449,69.165 C120.431667,68.7663313 120.351501,68.3828352 120.2085,68.0145 C120.065499,67.6461648 119.870501,67.3211681 119.6235,67.0395 C119.376499,66.7578319 119.077502,66.5325008 118.7265,66.3635 C118.375498,66.1944992 117.983335,66.11 117.55,66.11 Z M118.759,69.256 C118.785,69.4986679 118.785,69.7413321 118.759,69.984 C118.707,70.5473362 118.533668,70.9524988 118.239,71.1995 C117.944332,71.4465012 117.584669,71.57 117.16,71.57 C116.735331,71.57 116.377835,71.4443346 116.0875,71.193 C115.797165,70.9416654 115.630334,70.5820023 115.587,70.114 C115.569667,69.9839994 115.561,69.8193343 115.561,69.62 C115.561,69.4206657 115.569667,69.2560007 115.587,69.126 C115.630334,68.6753311 115.797165,68.3200013 116.0875,68.06 C116.377835,67.7999987 116.735331,67.67 117.16,67.67 C117.584669,67.67 117.944332,67.7934988 118.239,68.0405 C118.533668,68.2875012 118.707,68.6926639 118.759,69.256 Z M124.721,66.11 C124.244331,66.11 123.813169,66.1836659 123.4275,66.331 C123.041831,66.4783341 122.708168,66.6819987 122.4265,66.942 C122.144832,67.2020013 121.919501,67.5053316 121.7505,67.852 C121.581499,68.1986684 121.484,68.5713313 121.458,68.97 C121.449333,69.0480004 121.442833,69.1476661 121.4385,69.269 C121.434167,69.3903339 121.432,69.5116661 121.432,69.633 C121.432,69.7543339 121.434167,69.8734994 121.4385,69.9905 C121.442833,70.1075006 121.449333,70.2049996 121.458,70.283 C121.492667,70.6816687 121.592333,71.0543316 121.757,71.401 C121.921667,71.7476684 122.144832,72.0488321 122.4265,72.3045 C122.708168,72.5601679 123.041831,72.7616659 123.4275,72.909 C123.813169,73.0563341 124.244331,73.13 124.721,73.13 C125.197669,73.13 125.628831,73.0563341 126.0145,72.909 C126.400169,72.7616659 126.733832,72.5601679 127.0155,72.3045 C127.297168,72.0488321 127.520333,71.7476684 127.685,71.401 C127.849667,71.0543316 127.949333,70.6816687 127.984,70.283 C127.992667,70.2049996 127.997,70.1075006 127.997,69.9905 L127.997,69.269 C127.997,69.1476661 127.992667,69.0480004 127.984,68.97 C127.958,68.5713313 127.860501,68.1986684 127.6915,67.852 C127.522499,67.5053316 127.297168,67.2020013 127.0155,66.942 C126.733832,66.6819987 126.400169,66.4783341 126.0145,66.331 C125.628831,66.1836659 125.197669,66.11 124.721,66.11 Z M126.294,69.035 C126.302667,69.1043337 126.307,69.1909995 126.307,69.295 L126.307,69.9515 C126.307,70.0598339 126.302667,70.144333 126.294,70.205 C126.268,70.473668 126.205167,70.6968324 126.1055,70.8745 C126.005833,71.0521676 125.882334,71.1929995 125.735,71.297 C125.587666,71.4010005 125.427334,71.4724998 125.254,71.5115 C125.080666,71.5505002 124.903001,71.57 124.721,71.57 C124.538999,71.57 124.361334,71.5505002 124.188,71.5115 C124.014666,71.4724998 123.854334,71.4010005 123.707,71.297 C123.559666,71.1929995 123.436167,71.0521676 123.3365,70.8745 C123.236833,70.6968324 123.174,70.473668 123.148,70.205 C123.139333,70.144333 123.132833,70.0598339 123.1285,69.9515 C123.124167,69.8431661 123.122,69.7326672 123.122,69.62 C123.122,69.5073328 123.124167,69.3990005 123.1285,69.295 C123.132833,69.1909995 123.139333,69.1043337 123.148,69.035 C123.174,68.766332 123.236833,68.5431676 123.3365,68.3655 C123.436167,68.1878324 123.559666,68.0470005 123.707,67.943 C123.854334,67.8389995 124.014666,67.7675002 124.188,67.7285 C124.361334,67.6894998 124.538999,67.67 124.721,67.67 C124.903001,67.67 125.080666,67.6894998 125.254,67.7285 C125.427334,67.7675002 125.587666,67.8389995 125.735,67.943 C125.882334,68.0470005 126.005833,68.1878324 126.1055,68.3655 C126.205167,68.5431676 126.268,68.766332 126.294,69.035 Z M132.256,66.11 C131.779331,66.11 131.348169,66.1836659 130.9625,66.331 C130.576831,66.4783341 130.243168,66.6819987 129.9615,66.942 C129.679832,67.2020013 129.454501,67.5053316 129.2855,67.852 C129.116499,68.1986684 129.019,68.5713313 128.993,68.97 C128.984333,69.0480004 128.977833,69.1476661 128.9735,69.269 C128.969167,69.3903339 128.967,69.5116661 128.967,69.633 C128.967,69.7543339 128.969167,69.8734994 128.9735,69.9905 C128.977833,70.1075006 128.984333,70.2049996 128.993,70.283 C129.027667,70.6816687 129.127333,71.0543316 129.292,71.401 C129.456667,71.7476684 129.679832,72.0488321 129.9615,72.3045 C130.243168,72.5601679 130.576831,72.7616659 130.9625,72.909 C131.348169,73.0563341 131.779331,73.13 132.256,73.13 C132.732669,73.13 133.163831,73.0563341 133.5495,72.909 C133.935169,72.7616659 134.268832,72.5601679 134.5505,72.3045 C134.832168,72.0488321 135.055333,71.7476684 135.22,71.401 C135.384667,71.0543316 135.484333,70.6816687 135.519,70.283 C135.527667,70.2049996 135.532,70.1075006 135.532,69.9905 L135.532,69.269 C135.532,69.1476661 135.527667,69.0480004 135.519,68.97 C135.493,68.5713313 135.395501,68.1986684 135.2265,67.852 C135.057499,67.5053316 134.832168,67.2020013 134.5505,66.942 C134.268832,66.6819987 133.935169,66.4783341 133.5495,66.331 C133.163831,66.1836659 132.732669,66.11 132.256,66.11 Z M133.829,69.035 C133.837667,69.1043337 133.842,69.1909995 133.842,69.295 L133.842,69.9515 C133.842,70.0598339 133.837667,70.144333 133.829,70.205 C133.803,70.473668 133.740167,70.6968324 133.6405,70.8745 C133.540833,71.0521676 133.417334,71.1929995 133.27,71.297 C133.122666,71.4010005 132.962334,71.4724998 132.789,71.5115 C132.615666,71.5505002 132.438001,71.57 132.256,71.57 C132.073999,71.57 131.896334,71.5505002 131.723,71.5115 C131.549666,71.4724998 131.389334,71.4010005 131.242,71.297 C131.094666,71.1929995 130.971167,71.0521676 130.8715,70.8745 C130.771833,70.6968324 130.709,70.473668 130.683,70.205 C130.674333,70.144333 130.667833,70.0598339 130.6635,69.9515 C130.659167,69.8431661 130.657,69.7326672 130.657,69.62 C130.657,69.5073328 130.659167,69.3990005 130.6635,69.295 C130.667833,69.1909995 130.674333,69.1043337 130.683,69.035 C130.709,68.766332 130.771833,68.5431676 130.8715,68.3655 C130.971167,68.1878324 131.094666,68.0470005 131.242,67.943 C131.389334,67.8389995 131.549666,67.7675002 131.723,67.7285 C131.896334,67.6894998 132.073999,67.67 132.256,67.67 C132.438001,67.67 132.615666,67.6894998 132.789,67.7285 C132.962334,67.7675002 133.122666,67.8389995 133.27,67.943 C133.417334,68.0470005 133.540833,68.1878324 133.6405,68.3655 C133.740167,68.5431676 133.803,68.766332 133.829,69.035 Z M138.504,70.413 L140.987,72.779 C141.030334,72.8223336 141.0975,72.8699997 141.1885,72.922 C141.2795,72.9740003 141.389999,73 141.52,73 L142.781,73 C142.867667,73 142.941333,72.969667 143.002,72.909 C143.062667,72.848333 143.093,72.7746671 143.093,72.688 C143.093,72.6446665 143.084333,72.6056668 143.067,72.571 C143.049667,72.5363332 143.015,72.4930003 142.963,72.441 L139.648,69.256 L142.677,66.812 C142.746334,66.7599997 142.7875,66.7145002 142.8005,66.6755 C142.8135,66.6364998 142.82,66.5953336 142.82,66.552 C142.82,66.4653329 142.789667,66.391667 142.729,66.331 C142.668333,66.270333 142.594667,66.24 142.508,66.24 L141.182,66.24 C141.060666,66.24 140.958834,66.2659997 140.8765,66.318 C140.794166,66.3700003 140.727,66.4176665 140.675,66.461 L138.504,68.216 L138.504,64.121 C138.504,64.0256662 138.469334,63.9433337 138.4,63.874 C138.330666,63.8046663 138.248334,63.77 138.153,63.77 L137.165,63.77 C137.069666,63.77 136.987334,63.8046663 136.918,63.874 C136.848666,63.9433337 136.814,64.0256662 136.814,64.121 L136.814,72.649 C136.814,72.7443338 136.848666,72.8266663 136.918,72.896 C136.987334,72.9653337 137.069666,73 137.165,73 L138.153,73 C138.248334,73 138.330666,72.9653337 138.4,72.896 C138.469334,72.8266663 138.504,72.7443338 138.504,72.649 L138.504,70.413 Z M167.247559,63.6689453 L173.252441,63.6689453 C173.286296,63.6731771 173.303223,63.690104 173.303223,63.7197266 L173.303223,64.2910156 C173.303223,64.32487 173.286296,64.3417969 173.252441,64.3417969 L170.992676,64.3417969 L170.992676,64.3925781 C171.314292,64.5660816 171.563964,64.9215468 171.741699,65.4589844 L171.76709,65.6430664 L173.252441,65.6430664 C173.286296,65.6472982 173.303223,65.6642251 173.303223,65.6938477 L173.303223,66.2651367 C173.303223,66.2989911 173.286296,66.315918 173.252441,66.315918 L171.824219,66.315918 C171.824219,66.9549186 171.432784,67.5769827 170.649902,68.1821289 C169.955888,68.5799174 169.462892,68.7788086 169.170898,68.7788086 C169.170898,68.7957358 169.153972,68.8041992 169.120117,68.8041992 L172.344727,72.980957 L172.344727,73.0317383 L171.119629,73.0317383 C171.106934,73.0317383 169.860689,71.415218 167.380859,68.1821289 L167.380859,68.1567383 L167.768066,68.1567383 C169.139167,68.1567383 169.962238,67.6637419 170.237305,66.6777344 C170.254232,66.5592442 170.262695,66.4640303 170.262695,66.3920898 L170.262695,66.315918 L167.247559,66.315918 C167.213704,66.315918 167.196777,66.2989911 167.196777,66.2651367 L167.196777,65.6938477 C167.201009,65.6599933 167.217936,65.6430664 167.247559,65.6430664 L170.237305,65.6430664 C170.135742,65.2579733 169.919924,64.9448254 169.589844,64.7036133 C169.13281,64.4624011 168.715985,64.3417969 168.339355,64.3417969 L167.247559,64.3417969 C167.213704,64.3417969 167.196777,64.32487 167.196777,64.2910156 L167.196777,63.7197266 C167.201009,63.6858722 167.217936,63.6689453 167.247559,63.6689453 Z M173.625,66.838 C173.564333,66.7599996 173.5405,66.6733338 173.5535,66.578 C173.5665,66.4826662 173.612,66.404667 173.69,66.344 L176.511,64.121 C176.580334,64.0689997 176.651833,64.0191669 176.7255,63.9715 C176.799167,63.9238331 176.879333,63.9 176.966,63.9 L177.98,63.9 C178.075334,63.9 178.157666,63.9346663 178.227,64.004 C178.296334,64.0733337 178.331,64.1556662 178.331,64.251 L178.331,72.649 C178.331,72.7443338 178.296334,72.8266663 178.227,72.896 C178.157666,72.9653337 178.075334,73 177.98,73 L176.927,73 C176.831666,73 176.749334,72.9653337 176.68,72.896 C176.610666,72.8266663 176.576,72.7443338 176.576,72.649 L176.576,66.227 L174.73,67.67 C174.652,67.730667 174.5675,67.7545001 174.4765,67.7415 C174.3855,67.7284999 174.305334,67.6830004 174.236,67.605 L173.625,66.838 Z M158.491,67.958 C158.473667,68.287335 158.404334,68.5776654 158.283,68.829 C158.161666,69.0803346 158.007834,69.2904992 157.8215,69.4595 C157.635166,69.6285008 157.425001,69.7563329 157.191,69.843 C156.956999,69.9296671 156.718668,69.973 156.476,69.973 C156.042664,69.973 155.706835,69.9101673 155.4685,69.7845 C155.230165,69.6588327 155.050334,69.5223341 154.929,69.375 C154.859666,69.4616671 154.786,69.5483329 154.708,69.635 C154.63,69.7216671 154.530334,69.7996663 154.409,69.869 C154.287666,69.9383337 154.136001,69.9946665 153.954,70.038 C153.771999,70.0813336 153.546668,70.103 153.278,70.103 C152.957332,70.103 152.667001,70.0401673 152.407,69.9145 C152.146999,69.7888327 151.923834,69.6090012 151.7375,69.375 C151.551166,69.1409988 151.408167,68.8615016 151.3085,68.5365 C151.208833,68.2114984 151.159,67.8496687 151.159,67.451 C151.159,67.0523313 151.206666,66.6905016 151.302,66.3655 C151.397334,66.0404984 151.531666,65.7610012 151.705,65.527 C151.878334,65.2929988 152.092832,65.1110007 152.3485,64.981 C152.604168,64.8509994 152.892332,64.786 153.213,64.786 C153.568335,64.786 153.832666,64.8401661 154.006,64.9485 C154.179334,65.0568339 154.322333,65.1933325 154.435,65.358 L154.435,65.241 C154.435,65.1456662 154.469666,65.0633337 154.539,64.994 C154.608334,64.9246663 154.690666,64.89 154.786,64.89 L155.462,64.89 C155.557334,64.89 155.639666,64.9246663 155.709,64.994 C155.778334,65.0633337 155.813,65.1456662 155.813,65.241 L155.813,68.01 C155.813,68.218001 155.880166,68.3783328 156.0145,68.491 C156.148834,68.6036672 156.302666,68.66 156.476,68.66 C156.649334,68.66 156.798833,68.6015006 156.9245,68.4845 C157.050167,68.3674994 157.121667,68.1703347 157.139,67.893 C157.156333,67.6589988 157.165,67.4141679 157.165,67.1585 C157.165,66.9028321 157.152,66.6623345 157.126,66.437 C157.074,65.960331 156.965667,65.5400018 156.801,65.176 C156.636333,64.8119982 156.408835,64.5108345 156.1185,64.2725 C155.828165,64.0341655 155.464169,63.8543339 155.0265,63.733 C154.588831,63.6116661 154.071003,63.551 153.473,63.551 C152.970331,63.551 152.519669,63.6224993 152.121,63.7655 C151.722331,63.9085007 151.380001,64.1078321 151.094,64.3635 C150.807999,64.6191679 150.578334,64.9246649 150.405,65.28 C150.231666,65.6353351 150.119,66.0209979 150.067,66.437 C150.049667,66.5496672 150.038833,66.6991657 150.0345,66.8855 C150.030167,67.0718343 150.028,67.2668323 150.028,67.4705 C150.028,67.6741677 150.030167,67.8713324 150.0345,68.062 C150.038833,68.2526676 150.049667,68.4086661 150.067,68.53 C150.119,68.9460021 150.231666,69.3273316 150.405,69.674 C150.578334,70.0206684 150.807999,70.3218321 151.094,70.5775 C151.380001,70.8331679 151.722331,71.0324993 152.121,71.1755 C152.519669,71.3185007 152.970331,71.39 153.473,71.39 C153.828335,71.39 154.135999,71.3726668 154.396,71.338 C154.656001,71.3033332 154.883499,71.255667 155.0785,71.195 C155.273501,71.134333 155.440333,71.067167 155.579,70.9935 C155.717667,70.919833 155.843333,70.8440004 155.956,70.766 C156.051334,70.6966663 156.127166,70.6468335 156.1835,70.6165 C156.239834,70.5861665 156.315666,70.571 156.411,70.571 L157.373,70.571 C157.468334,70.571 157.552833,70.6034997 157.6265,70.6685 C157.700167,70.7335003 157.732667,70.8223328 157.724,70.935 C157.724,71.0043337 157.693667,71.069333 157.633,71.13 C157.450999,71.3120009 157.245168,71.4983324 157.0155,71.689 C156.785832,71.8796676 156.510668,72.0486659 156.19,72.196 C155.869332,72.3433341 155.488002,72.4646662 155.046,72.56 C154.603998,72.6553338 154.07967,72.703 153.473,72.703 C152.718996,72.703 152.056003,72.5925011 151.484,72.3715 C150.911997,72.1504989 150.428835,71.8515019 150.0345,71.4745 C149.640165,71.0974981 149.330334,70.6598358 149.105,70.1615 C148.879666,69.6631642 148.741,69.1410027 148.689,68.595 C148.680333,68.4736661 148.673833,68.3111677 148.6695,68.1075 C148.665167,67.9038323 148.663,67.6915011 148.663,67.4705 C148.663,67.2494989 148.665167,67.0393343 148.6695,66.84 C148.673833,66.6406657 148.680333,66.4846672 148.689,66.372 C148.732334,65.834664 148.864499,65.3168358 149.0855,64.8185 C149.306501,64.3201642 149.616331,63.8803352 150.015,63.499 C150.413669,63.1176648 150.901164,62.8121678 151.4775,62.5825 C152.053836,62.3528322 152.718996,62.238 153.473,62.238 C154.357004,62.238 155.106664,62.3463323 155.722,62.563 C156.337336,62.7796678 156.842165,63.0743315 157.2365,63.447 C157.630835,63.8196685 157.925499,64.2573308 158.1205,64.76 C158.315501,65.2626692 158.439,65.7999971 158.491,66.372 C158.508333,66.5973345 158.517,66.8594985 158.517,67.1585 C158.517,67.4575015 158.508333,67.7239988 158.491,67.958 Z M152.524,67.451 C152.524,67.8756688 152.606333,68.2049988 152.771,68.439 C152.935667,68.6730012 153.169665,68.79 153.473,68.79 C153.793668,68.79 154.034166,68.6751678 154.1945,68.4455 C154.354834,68.2158322 154.435,67.8843355 154.435,67.451 C154.435,67.0263312 154.354834,66.6948345 154.1945,66.4565 C154.034166,66.2181655 153.793668,66.099 153.473,66.099 C153.169665,66.099 152.935667,66.2181655 152.771,66.4565 C152.606333,66.6948345 152.524,67.0263312 152.524,67.451 Z" id="Combined-Shape"></path>
                </g>
            </g>
        </g>
    </g>
</svg>