<?xml version="1.0" encoding="UTF-8"?>
<svg width="42px" height="26px" viewBox="0 0 42 26" version="1.1" xmlns="http://www.w3.org/2000/svg" xmlns:xlink="http://www.w3.org/1999/xlink">
    <!-- Generator: Sketch 51.3 (57544) - http://www.bohemiancoding.com/sketch -->
    <title>Group 2</title>
    <desc>Created with Sketch.</desc>
    <defs>
        <path d="M8,0 L32,0 C36.418278,-8.11624501e-16 40,3.581722 40,8 L40,8 C40,12.418278 36.418278,16 32,16 L8,16 C3.581722,16 5.41083001e-16,12.418278 0,8 L0,8 C-5.41083001e-16,3.581722 3.581722,8.11624501e-16 8,0 Z" id="path-1"></path>
    </defs>
    <g id="Page-1" stroke="none" stroke-width="1" fill="none" fill-rule="evenodd">
        <g id="INT-One-Way---No-Cost-EMI-Option-2" transform="translate(-1107.000000, -366.000000)">
            <g id="Group-2" transform="translate(1107.000000, 366.000000)">
                <g id="Group-Copy" transform="translate(0.000000, 10.000000)">
                    <mask id="mask-2" fill="white">
                        <use xlink:href="#path-1"></use>
                    </mask>
                    <path stroke="#2760AB" stroke-width="0.629999973" d="M8,0.314999986 C3.75569169,0.314999986 0.314999986,3.75569169 0.314999986,8 C0.314999986,12.2443083 3.75569169,15.685 8,15.685 L32,15.685 C36.2443083,15.685 39.685,12.2443083 39.685,8 C39.685,3.75569169 36.2443083,0.314999986 32,0.314999986 L8,0.314999986 Z"></path>
                    <circle id="Oval-2" fill="#2760AB" fill-rule="nonzero" mask="url(#mask-2)" cx="7" cy="8" r="8"></circle>
                    <path d="M4.8888169,8.06828169 C4.31033514,8.06828169 3.84670597,7.91940994 3.49791549,7.62166197 C3.14912502,7.323914 2.95771848,6.91983354 2.92369014,6.40940845 C2.90667597,6.15419591 2.89816901,5.97554981 2.89816901,5.87346479 C2.89816901,5.76287269 2.90667597,5.53743832 2.92369014,5.19715493 C2.9492114,4.67822276 3.13211097,4.26563533 3.47239437,3.95938028 C3.81267776,3.65312523 4.28481388,3.5 4.8888169,3.5 C5.49281992,3.5 5.96495605,3.65312523 6.30523944,3.95938028 C6.64552283,4.26563533 6.83267589,4.67822276 6.86670423,5.19715493 C6.88371839,5.53743832 6.89222535,5.76287269 6.89222535,5.87346479 C6.89222535,5.97554981 6.88371839,6.15419591 6.86670423,6.40940845 C6.83267589,6.91983354 6.63914261,7.323914 6.28609859,7.62166197 C5.93305457,7.91940994 5.46729867,8.06828169 4.8888169,8.06828169 Z M3.88073239,12.4961972 C3.79566155,12.4961972 3.72547915,12.4728031 3.6701831,12.4260141 C3.61488705,12.3792251 3.58723944,12.3175497 3.58723944,12.2409859 C3.58723944,12.1899434 3.60425335,12.1431551 3.63828169,12.1006197 L9.942,3.80625352 C10.0100567,3.72118267 10.0738589,3.65950723 10.1334085,3.62122535 C10.192958,3.58294347 10.2780276,3.56380282 10.3886197,3.56380282 L11.345662,3.56380282 C11.4307328,3.56380282 11.5009152,3.58719695 11.5562113,3.63398592 C11.6115073,3.68077488 11.6391549,3.74245032 11.6391549,3.81901408 C11.6391549,3.87005659 11.622141,3.91684486 11.5881127,3.95938028 L5.28439437,12.2537465 C5.21633769,12.3388173 5.15253551,12.4004928 5.09298592,12.4387746 C5.03343632,12.4770565 4.94836675,12.4961972 4.83777465,12.4961972 L3.88073239,12.4961972 Z M4.8888169,6.93259155 C5.07597277,6.93259155 5.21421082,6.87516959 5.30353521,6.76032394 C5.3928596,6.6454783 5.44177461,6.50298677 5.45028169,6.33284507 C5.46729586,6.07763253 5.47580282,5.89898643 5.47580282,5.79690141 C5.47580282,5.68630931 5.46729586,5.51191668 5.45028169,5.27371831 C5.44177461,5.09506953 5.3928596,4.94832452 5.30353521,4.83347887 C5.21421082,4.71863323 5.07597277,4.66121127 4.8888169,4.66121127 C4.54853351,4.66121127 4.36138045,4.86537824 4.32735211,5.27371831 C4.31884503,5.3928175 4.31459155,5.56721012 4.31459155,5.79690141 C4.31459155,6.0265927 4.31884503,6.2052388 4.32735211,6.33284507 C4.34436628,6.51149385 4.39753476,6.65611212 4.48685915,6.76670423 C4.57618355,6.87729633 4.71016812,6.93259155 4.8888169,6.93259155 Z M10.3630986,12.56 C9.78461683,12.56 9.31886092,12.4068748 8.9658169,12.1006197 C8.61277288,11.7943647 8.41923961,11.3860307 8.38521127,10.8756056 C8.3681971,10.6203931 8.35969014,10.441747 8.35969014,10.339662 C8.35969014,10.237577 8.3681971,10.0163961 8.38521127,9.67611268 C8.41923961,9.14867342 8.60639266,8.73183252 8.94667606,8.42557746 C9.28695945,8.11932241 9.75909557,7.96619718 10.3630986,7.96619718 C10.9671016,7.96619718 11.4392377,8.11932241 11.7795211,8.42557746 C12.1198045,8.73183252 12.3027041,9.14867342 12.3282254,9.67611268 C12.3452395,10.0163961 12.3537465,10.237577 12.3537465,10.339662 C12.3537465,10.441747 12.3452395,10.6203931 12.3282254,10.8756056 C12.294197,11.3860307 12.1027905,11.7943647 11.754,12.1006197 C11.4052095,12.4068748 10.9415804,12.56 10.3630986,12.56 Z M10.3630986,11.4115493 C10.5417474,11.4115493 10.6757319,11.3541273 10.7650563,11.2392817 C10.8543807,11.124436 10.9075492,10.977691 10.9245634,10.7990423 C10.9415775,10.5438297 10.9500845,10.3651836 10.9500845,10.2630986 C10.9500845,10.1525065 10.9415775,9.97811387 10.9245634,9.73991549 C10.9075492,9.56126671 10.8543807,9.41664844 10.7650563,9.30605634 C10.6757319,9.19546424 10.5417474,9.14016901 10.3630986,9.14016901 C10.1759427,9.14016901 10.0377047,9.19759098 9.94838028,9.31243662 C9.85905589,9.42728226 9.81014089,9.5697738 9.8016338,9.73991549 C9.79312672,9.85901468 9.78887324,10.0334073 9.78887324,10.2630986 C9.78887324,10.4927899 9.79312672,10.671436 9.8016338,10.7990423 C9.81014089,10.977691 9.85905589,11.124436 9.94838028,11.2392817 C10.0377047,11.3541273 10.1759427,11.4115493 10.3630986,11.4115493 Z" id="%" fill="#FFFFFF" mask="url(#mask-2)"></path>
                    <path d="M17.2617353,11.6339455 C17.1890307,11.6339455 17.1272327,11.6084993 17.0763395,11.5576061 C17.0254462,11.5067129 17,11.4449149 17,11.3722103 L17,4.27264091 C17,4.19266584 17.0236286,4.12723268 17.0708866,4.07633946 C17.1181446,4.02544623 17.1817602,4 17.2617353,4 L22.071121,4 C22.151096,4 22.2165292,4.02544623 22.2674224,4.07633946 C22.3183156,4.12723268 22.3437619,4.19266584 22.3437619,4.27264091 L22.3437619,5.00331856 C22.3437619,5.08329362 22.3183156,5.1469092 22.2674224,5.19416719 C22.2165292,5.24142519 22.151096,5.26505383 22.071121,5.26505383 L18.4940722,5.26505383 L18.4940722,7.17354022 L21.831197,7.17354022 C21.911172,7.17354022 21.9766052,7.19898645 22.0274984,7.24987967 C22.0783916,7.3007729 22.1038379,7.36620606 22.1038379,7.44618113 L22.1038379,8.13323623 C22.1038379,8.21321129 22.0783916,8.27682687 22.0274984,8.32408486 C21.9766052,8.37134286 21.911172,8.3949715 21.831197,8.3949715 L18.4940722,8.3949715 L18.4940722,10.3688917 L22.1583661,10.3688917 C22.2383411,10.3688917 22.3037743,10.3925203 22.3546675,10.4397783 C22.4055607,10.4870363 22.431007,10.5506519 22.431007,10.630627 L22.431007,11.3722103 C22.431007,11.4521853 22.4055607,11.5158009 22.3546675,11.5630589 C22.3037743,11.6103169 22.2383411,11.6339455 22.1583661,11.6339455 L17.2617353,11.6339455 Z M24.0559468,11.6339455 C23.9832422,11.6339455 23.9214442,11.6084993 23.870551,11.5576061 C23.8196578,11.5067129 23.7942115,11.4449149 23.7942115,11.3722103 L23.7942115,4.27264091 C23.7942115,4.19266584 23.8178402,4.12723268 23.8650982,4.07633946 C23.9123562,4.02544623 23.9759717,4 24.0559468,4 L24.9393034,4 C25.0774421,4 25.1864974,4.06906834 25.2664725,4.20720709 L27.3712603,8.11142495 L29.4760481,4.20720709 C29.5560232,4.06906834 29.6650785,4 29.8032172,4 L30.6756681,4 C30.7556432,4 30.8210764,4.02544623 30.8719696,4.07633946 C30.9228628,4.12723268 30.9483091,4.19266584 30.9483091,4.27264091 L30.9483091,11.3722103 C30.9483091,11.4521853 30.9228628,11.5158009 30.8719696,11.5630589 C30.8210764,11.6103169 30.7556432,11.6339455 30.6756681,11.6339455 L29.7377834,11.6339455 C29.6650788,11.6339455 29.6032808,11.6084993 29.5523876,11.5576061 C29.5014944,11.5067129 29.4760481,11.4449149 29.4760481,11.3722103 L29.4760481,6.68278657 L27.9601647,9.5618746 C27.8801896,9.72182474 27.7602288,9.80179861 27.6002787,9.80179861 L27.1422419,9.80179861 C26.9895623,9.80179861 26.8659663,9.72182474 26.7714503,9.5618746 L25.2555668,6.68278657 L25.2555668,11.3722103 C25.2555668,11.4449149 25.2319382,11.5067129 25.1846802,11.5576061 C25.1374222,11.6084993 25.0738066,11.6339455 24.9938315,11.6339455 L24.0559468,11.6339455 Z M32.9113236,11.6339455 C32.838619,11.6339455 32.776821,11.6084993 32.7259278,11.5576061 C32.6750346,11.5067129 32.6495883,11.4449149 32.6495883,11.3722103 L32.6495883,4.26173528 C32.6495883,4.18176021 32.6750346,4.11814463 32.7259278,4.07088664 C32.776821,4.02362864 32.838619,4 32.9113236,4 L33.9582647,4 C34.0382398,4 34.1018554,4.02362864 34.1491134,4.07088664 C34.1963714,4.11814463 34.22,4.18176021 34.22,4.26173528 L34.22,11.3722103 C34.22,11.4449149 34.1963714,11.5067129 34.1491134,11.5576061 C34.1018554,11.6084993 34.0382398,11.6339455 33.9582647,11.6339455 L32.9113236,11.6339455 Z" id="EMI-Copy" fill="#26518A" mask="url(#mask-2)"></path>
                </g>
                <path d="M2.02,8 C1.953333,8 1.8966669,7.9766669 1.85,7.93 C1.8033331,7.8833331 1.78,7.826667 1.78,7.76 L1.78,1.25 C1.78,1.1766663 1.80166645,1.1166669 1.845,1.07 C1.88833355,1.0233331 1.9466663,1 2.02,1 L2.8,1 C2.9266673,1 3.023333,1.0566661 3.09,1.17 L5.95,5.61 L5.95,1.25 C5.95,1.1766663 5.97166645,1.1166669 6.015,1.07 C6.05833355,1.0233331 6.1166663,1 6.19,1 L7.05,1 C7.1233337,1 7.1833331,1.0233331 7.23,1.07 C7.2766669,1.1166669 7.3,1.1766663 7.3,1.25 L7.3,7.75 C7.3,7.8233337 7.2766669,7.8833331 7.23,7.93 C7.1833331,7.9766669 7.126667,8 7.06,8 L6.27,8 C6.136666,8 6.036667,7.9433339 5.97,7.83 L3.12,3.49 L3.12,7.76 C3.12,7.826667 3.09833355,7.8833331 3.055,7.93 C3.01166645,7.9766669 2.9533337,8 2.88,8 L2.02,8 Z M11.2166667,8.1 C10.3033288,8.1 9.5933359,7.8700023 9.0866667,7.41 C8.5799975,6.9499977 8.3133335,6.2666712 8.2866667,5.36 C8.28,5.1666657 8.2766667,4.8833352 8.2766667,4.51 C8.2766667,4.1299981 8.28,3.8433343 8.2866667,3.65 C8.3133335,2.7633289 8.5866641,2.0833357 9.1066667,1.61 C9.6266693,1.1366643 10.3299956,0.9 11.2166667,0.9 C12.0966711,0.9 12.7983307,1.1366643 13.3216667,1.61 C13.8450026,2.0833357 14.1199999,2.7633289 14.1466667,3.65 C14.1600001,4.0366686 14.1666667,4.3233324 14.1666667,4.51 C14.1666667,4.6900009 14.1600001,4.9733314 14.1466667,5.36 C14.1199999,6.2666712 13.8516692,6.9499977 13.3416667,7.41 C12.8316641,7.8700023 12.1233379,8.1 11.2166667,8.1 Z M11.2166667,6.94 C11.6633356,6.94 12.0166654,6.806668 12.2766667,6.54 C12.536668,6.273332 12.6766666,5.8633361 12.6966667,5.31 C12.7100001,4.909998 12.7166667,4.6400007 12.7166667,4.5 C12.7166667,4.3466659 12.7100001,4.0766686 12.6966667,3.69 C12.6766666,3.1433306 12.5333347,2.73500135 12.2666667,2.465 C11.9999987,2.19499865 11.6500022,2.06 11.2166667,2.06 C10.7766645,2.06 10.4233347,2.19499865 10.1566667,2.465 C9.8899987,2.73500135 9.7500001,3.1433306 9.7366667,3.69 C9.73,3.8833343 9.7266667,4.1533316 9.7266667,4.5 C9.7266667,4.8400017 9.73,5.109999 9.7366667,5.31 C9.7500001,5.8566694 9.88833205,6.26499865 10.1516667,6.535 C10.4150013,6.80500135 10.7699978,6.94 11.2166667,6.94 Z M19.7800001,8.1 C18.8599955,8.1 18.1483359,7.86500235 17.6450001,7.395 C17.1416642,6.92499765 16.8733336,6.256671 16.8400001,5.39 C16.8333334,5.2099991 16.8300001,4.9166687 16.8300001,4.51 C16.8300001,4.0966646 16.8333334,3.7966676 16.8400001,3.61 C16.8733336,2.7566624 17.1433309,2.09166905 17.6500001,1.615 C18.1566693,1.13833095 18.8666622,0.9 19.7800001,0.9 C20.3733364,0.9 20.8899979,1.00166565 21.3300001,1.205 C21.7700023,1.40833435 22.1116655,1.6866649 22.3550001,2.04 C22.5983346,2.3933351 22.7266667,2.7899978 22.7400001,3.23 L22.7400001,3.25 C22.7400001,3.3033336 22.7183336,3.34833315 22.6750001,3.385 C22.6316665,3.42166685 22.5833337,3.44 22.5300001,3.44 L21.5600001,3.44 C21.4799997,3.44 21.4200003,3.42166685 21.3800001,3.385 C21.3399999,3.34833315 21.3066669,3.2833338 21.2800001,3.19 C21.1799996,2.7766646 21.006668,2.48500085 20.7600001,2.315 C20.5133322,2.14499915 20.1866688,2.06 19.7800001,2.06 C18.826662,2.06 18.3300003,2.593328 18.2900001,3.66 C18.2833334,3.8400009 18.2800001,4.1166648 18.2800001,4.49 C18.2800001,4.8633352 18.2833334,5.1466657 18.2900001,5.34 C18.3300003,6.406672 18.826662,6.94 19.7800001,6.94 C20.1800021,6.94 20.5049988,6.85500085 20.7550001,6.685 C21.0050013,6.51499915 21.1799996,6.2233354 21.2800001,5.81 C21.3066669,5.7166662 21.3399999,5.65166685 21.3800001,5.615 C21.4200003,5.57833315 21.4799997,5.56 21.5600001,5.56 L22.5300001,5.56 C22.5900004,5.56 22.6416665,5.5799998 22.6850001,5.62 C22.7283336,5.6600002 22.7466668,5.7099997 22.7400001,5.77 C22.7266667,6.2100022 22.5983346,6.6066649 22.3550001,6.96 C22.1116655,7.3133351 21.7700023,7.59166565 21.3300001,7.795 C20.8899979,7.99833435 20.3733364,8.1 19.7800001,8.1 Z M26.2966668,8.1 C25.3833289,8.1 24.673336,7.8700023 24.1666668,7.41 C23.6599976,6.9499977 23.3933336,6.2666712 23.3666668,5.36 C23.3600001,5.1666657 23.3566668,4.8833352 23.3566668,4.51 C23.3566668,4.1299981 23.3600001,3.8433343 23.3666668,3.65 C23.3933336,2.7633289 23.6666642,2.0833357 24.1866668,1.61 C24.7066694,1.1366643 25.4099957,0.9 26.2966668,0.9 C27.1766712,0.9 27.8783308,1.1366643 28.4016668,1.61 C28.9250027,2.0833357 29.2,2.7633289 29.2266668,3.65 C29.2400002,4.0366686 29.2466668,4.3233324 29.2466668,4.51 C29.2466668,4.6900009 29.2400002,4.9733314 29.2266668,5.36 C29.2,6.2666712 28.9316693,6.9499977 28.4216668,7.41 C27.9116642,7.8700023 27.203338,8.1 26.2966668,8.1 Z M26.2966668,6.94 C26.7433357,6.94 27.0966655,6.806668 27.3566668,6.54 C27.6166681,6.273332 27.7566667,5.8633361 27.7766668,5.31 C27.7900002,4.909998 27.7966668,4.6400007 27.7966668,4.5 C27.7966668,4.3466659 27.7900002,4.0766686 27.7766668,3.69 C27.7566667,3.1433306 27.6133348,2.73500135 27.3466668,2.465 C27.0799988,2.19499865 26.7300023,2.06 26.2966668,2.06 C25.8566646,2.06 25.5033348,2.19499865 25.2366668,2.465 C24.9699988,2.73500135 24.8300002,3.1433306 24.8166668,3.69 C24.8100001,3.8833343 24.8066668,4.1533316 24.8066668,4.5 C24.8066668,4.8400017 24.8100001,5.109999 24.8166668,5.31 C24.8300002,5.8566694 24.9683321,6.26499865 25.2316668,6.535 C25.4950014,6.80500135 25.8499979,6.94 26.2966668,6.94 Z M32.6533335,8.1 C32.0533305,8.1 31.5400023,8.0100009 31.1133335,7.83 C30.6866647,7.6499991 30.3633346,7.4133348 30.1433335,7.12 C29.9233324,6.8266652 29.8066669,6.5066684 29.7933335,6.16 C29.7933335,6.1066664 29.8133333,6.05833355 29.8533335,6.015 C29.8933337,5.97166645 29.9433332,5.95 30.0033335,5.95 L30.9133335,5.95 C30.9866672,5.95 31.0466666,5.9666665 31.0933335,6 C31.1400004,6.0333335 31.1833333,6.0799997 31.2233335,6.14 C31.2900005,6.3666678 31.4416656,6.5566659 31.6783335,6.71 C31.9150013,6.8633341 32.2399981,6.94 32.6533335,6.94 C33.1200025,6.94 33.4716656,6.86166745 33.7083335,6.705 C33.9450013,6.54833255 34.0633335,6.3333347 34.0633335,6.06 C34.0633335,5.8799991 34.0033341,5.7300006 33.8833335,5.61 C33.7633329,5.4899994 33.581668,5.38500045 33.3383335,5.295 C33.0949989,5.20499955 32.7333359,5.0966673 32.2533335,4.97 C31.4666629,4.7833324 30.890002,4.5366682 30.5233335,4.23 C30.156665,3.9233318 29.9733335,3.4833362 29.9733335,2.91 C29.9733335,2.5233314 30.0799991,2.17833485 30.2933335,1.875 C30.5066679,1.57166515 30.8116648,1.3333342 31.2083335,1.16 C31.6050021,0.9866658 32.0666642,0.9 32.5933335,0.9 C33.1466696,0.9 33.6249981,0.9966657 34.0283335,1.19 C34.4316688,1.3833343 34.7383324,1.62499855 34.9483335,1.915 C35.1583345,2.20500145 35.2700001,2.4933319 35.2833335,2.78 C35.2833335,2.8333336 35.2633337,2.88166645 35.2233335,2.925 C35.1833333,2.96833355 35.1333338,2.99 35.0733335,2.99 L34.1233335,2.99 C33.9766661,2.99 33.8766671,2.9300006 33.8233335,2.81 C33.79,2.5966656 33.6600013,2.41833405 33.4333335,2.275 C33.2066657,2.13166595 32.9266685,2.06 32.5933335,2.06 C32.226665,2.06 31.9383345,2.1299993 31.7283335,2.27 C31.5183324,2.4100007 31.4133335,2.613332 31.4133335,2.88 C31.4133335,3.0600009 31.4666663,3.2099994 31.5733335,3.33 C31.6800007,3.4500006 31.8466657,3.55499955 32.0733335,3.645 C32.3000013,3.73500045 32.629998,3.8366661 33.0633335,3.95 C33.6566698,4.083334 34.1283317,4.2333325 34.4783335,4.4 C34.8283352,4.5666675 35.086666,4.7766654 35.2533335,5.03 C35.420001,5.2833346 35.5033335,5.6066647 35.5033335,6 C35.5033335,6.4333355 35.3850013,6.80833175 35.1483335,7.125 C34.9116656,7.44166825 34.5783356,7.6833325 34.1483335,7.85 C33.7183313,8.0166675 33.220003,8.1 32.6533335,8.1 Z M38.0100002,8 C37.9433332,8 37.8866671,7.9766669 37.8400002,7.93 C37.7933333,7.8833331 37.7700002,7.826667 37.7700002,7.76 L37.7700002,2.25 L35.9200002,2.25 C35.8533332,2.25 35.7966671,2.2266669 35.7500002,2.18 C35.7033333,2.1333331 35.6800002,2.0733337 35.6800002,2 L35.6800002,1.25 C35.6800002,1.1766663 35.7016666,1.1166669 35.7450002,1.07 C35.7883337,1.0233331 35.8466665,1 35.9200002,1 L41.0300002,1 C41.1033339,1 41.1633333,1.0233331 41.2100002,1.07 C41.2566671,1.1166669 41.2800002,1.1766663 41.2800002,1.25 L41.2800002,2 C41.2800002,2.0733337 41.2566671,2.1333331 41.2100002,2.18 C41.1633333,2.2266669 41.1033339,2.25 41.0300002,2.25 L39.1900002,2.25 L39.1900002,7.76 C39.1900002,7.826667 39.1683337,7.8833331 39.1250002,7.93 C39.0816666,7.9766669 39.0233339,8 38.9500002,8 L38.0100002,8 Z" id="NO-COST" fill="#666666"></path>
            </g>
        </g>
    </g>
</svg>